PathFileType	4	(X/Y/Z)	62_2_8_p0_0-765_filt_butterworth.trc
DataRate	CameraRate	NumFrames	NumMarkers	Units	OrigDataRate	OrigDataStartFrame	OrigNumFrames
47.0	47.0	5	27	m	47.0	478	765
Frame#	Time	RHip			RKnee			RAnkle			RBigToe			RSmallToe			RHeel			LHip			LKnee			LAnkle			LBigToe			LSmallToe			LHeel			Neck			Head			Nose			RShoulder			RElbow			RWrist			RThumb			RIndex			RPinky			LShoulder			LElbow			LWrist			LThumb			LIndex			LPinky			
		X1	Y1	Z1	X2	Y2	Z2	X3	Y3	Z3	X4	Y4	Z4	X5	Y5	Z5	X6	Y6	Z6	X7	Y7	Z7	X8	Y8	Z8	X9	Y9	Z9	X10	Y10	Z10	X11	Y11	Z11	X12	Y12	Z12	X13	Y13	Z13	X14	Y14	Z14	X15	Y15	Z15	X16	Y16	Z16	X17	Y17	Z17	X18	Y18	Z18	X19	Y19	Z19	X20	Y20	Z20	X21	Y21	Z21	X22	Y22	Z22	X23	Y23	Z23	X24	Y24	Z24	X25	Y25	Z25	X26	Y26	Z26	X27	Y27	Z27	
478	10.170212765957446	0.3134134487610168	0.4071833656207282	0.27611988758197803	0.3427825241474088	0.7511436321202007	0.567536249150633	0.3215385917197363	1.0139962359136487	0.8311136265079042	0.31059574532499273	0.9340594615541653	0.9366956321826738	0.35521797059392607	0.9285018941146039	0.9247088718644845	0.30480312948219185	1.0992621282059396	0.8469753509098181	0.13787741897906505	0.45715696831726693	0.24308737452358045	0.12742697598969796	0.77488612483563	0.543436599005038	0.14281264561573384	1.0590876158458704	0.8339213772122641	0.10965229776094373	0.9136953799682316	0.9291486444534668	0.07441692313499804	0.9831487733030001	0.8949773149971041	0.15899478243020626	1.093270311738594	0.8513467192857483	0.22813620067900636	0.110940833939285	-0.1837474226785455	0.21460800172035188	-0.0676344331043789	-0.35788123192366894	0.20302495418790328	-0.029314354211089216	-0.21982265539819848	0.3652434575871857	0.1300733242860722	-0.10288060407863553	0.3616111712421357	0.23609688371331147	0.13728723229589734	0.28356826287026576	0.04072165425855007	0.0817328810613945	0.2572095169066844	-0.052664982497109304	0.007091913005611622	0.252802432307823	-0.11031785573120245	0.03508013833563753	0.231052225058252	-0.08481721089048638	0.09050980049381661	0.07801409630214338	0.21716155182580094	-0.1724691841445674	0.061371904048190457	0.26333594866036014	0.10609007116510828	0.07616626766519759	0.06907546589352104	0.047241241231908586	0.0729117309383745	-0.0060282038820932485	-0.020192711603098455	0.06181590543906951	-0.03406525480216263	-0.0012523705108162585	0.07509543232358801	-0.020354993433033305	0.06218481283254249
479	10.191489361702128	0.3130417162158226	0.4057744472628727	0.2746915094177831	0.3427336646314142	0.7500006504661497	0.565997624367969	0.3214382508974809	1.0202968410884083	0.8307934911564884	0.3103794731054239	0.9340505419274556	0.9367228800835052	0.3549173178689712	0.9283231503699615	0.924322177602197	0.30467949202661926	1.1037696906726369	0.846329990596119	0.13762157833514854	0.4588960163403067	0.24220907880435621	0.12689122180345516	0.7781004707911172	0.5415758483554055	0.14280565653685234	1.0590765781635219	0.833917587293186	0.10973281288631483	0.9137304344270754	0.9291386427244624	0.07444856807077604	0.9831423033322229	0.8950655865003386	0.15898710850152942	1.0933102224154176	0.8514047011341087	0.22817726175833422	0.1099023301139286	-0.18514676893845972	0.21482772336456468	-0.06771024903728876	-0.3580103153605362	0.20081850070687415	-0.032559194399793996	-0.21819416552877866	0.36615173693478603	0.13154056192942884	-0.10661141100181858	0.36500241615342116	0.24508221314121495	0.13532715268023102	0.29248228795804054	0.050579164845355455	0.08582857508264688	0.2839639647005347	-0.0598794491026892	0.01435180508937579	0.28312002502702577	-0.11503217265338499	0.042824571975908915	0.25529896319237533	-0.08850377144071801	0.09563270992847255	0.07436563169600909	0.21173799155534845	-0.16768973939598109	0.06975676079174159	0.26802661613195355	0.10284107716227567	0.0650351216454007	0.06595589062573005	0.052765867740548096	0.0486043869424328	-0.013595398022035838	-0.019079833828241077	0.03435019266726923	-0.04740328711708533	0.008914593713851775	0.044539363741471674	-0.02589263493101726	0.06784478244892551
480	10.212765957446807	0.31279390857409883	0.4043467291126598	0.2721520948873576	0.3427674917137058	0.7491897214453838	0.5648512860397525	0.3213534897134549	1.0207253645099803	0.831368462317842	0.3089504821701956	0.9335315694639905	0.9367240125183074	0.35463209144201363	0.9276228342210485	0.9244751604753529	0.30462370122461635	1.101690653386699	0.8464776910081884	0.1373350342689249	0.4593928112137795	0.24096223985378185	0.1266722380617069	0.7769131866736214	0.5412389488341899	0.14278827562833307	1.059059556591818	0.8338910938157349	0.1097805643063571	0.9137780788076827	0.929149835347797	0.07458422703307524	0.9834202196028377	0.8950913250978798	0.15898096507109052	1.0933373029054423	0.8514553635397053	0.22806479517775374	0.1083884054461126	-0.18680779098448025	0.2145437099759544	-0.06770405353677553	-0.35739414561059024	0.19759740527424052	-0.03527424725270004	-0.21818730322579627	0.36894619542377394	0.13109685420452907	-0.10934042900800241	0.3638740099759287	0.24509536895524558	0.13543483138287019	0.3000643884113561	0.04715115009947937	0.0955926059849044	0.3048678818831261	-0.07357903708780962	0.030381615402403493	0.3097860887074158	-0.11129649892674766	0.0516716235514188	0.27695911839469384	-0.08624093561625779	0.10346789751229056	0.07195407483659805	0.20757331185689493	-0.16347710965372203	0.07499645826967002	0.2685774760934937	0.09838148296326127	0.05162759047326678	0.06411162255652929	0.055542830513528436	0.02214009992042986	-0.010091511098454357	-0.019620194922801995	0.009478680093915236	-0.0539259938064035	0.012859511612366257	0.018923540095257648	-0.03440688710913353	0.07298524727172347
481	10.23404255319149	0.3127471909551136	0.40328993316194706	0.2695318799054405	0.34273307198033465	0.7488877268310503	0.5644939722791251	0.3213172758656945	1.0199119641955419	0.8322621210056609	0.3067562884098013	0.9326385523538854	0.9367220360467763	0.3542958145570166	0.9268311367941685	0.9252395375603725	0.30465585716699944	1.0995028194252674	0.8466948357946906	0.13763675674083686	0.4580807597277269	0.24115886749800708	0.1267531433216942	0.7741355332903519	0.5428031024777213	0.14279707741552947	1.0590712833715248	0.8338678438818685	0.10977296341930348	0.9138242874747498	0.9291579615265866	0.07480848632352029	0.9839552248791101	0.8949991183437672	0.1589895863849373	1.0933528162599977	0.8514868452447368	0.22782093628633568	0.10715215566140694	-0.18811899796301135	0.21301152056818767	-0.06765482989872075	-0.3562150828440604	0.19462434771762355	-0.03630655572929485	-0.21893461106508583	0.3708926276104716	0.13336226317372712	-0.11208819361834269	0.3619755146489041	0.23631566274224375	0.13563323546015985	0.31381259727233013	0.029487261686914793	0.10893150851352104	0.3223981194683653	-0.08975878132803503	0.05005699470485813	0.3284141292113749	-0.11025612231855718	0.06767921434302553	0.3004184647227086	-0.08327647495353357	0.1146255998828792	0.07092608880511495	0.2019553247221123	-0.15965878584562931	0.07416910229615908	0.2675748613085074	0.09295047924321964	0.037131526307921374	0.06519773339996691	0.05161758880010463	-0.0009909856393031501	-0.003909821899207052	-0.021244390197961496	-0.014685951026086734	-0.057447242139730514	0.012613515945235434	-0.0024614291131513106	-0.04692971271395399	0.07571327243899884
482	10.25531914893617	0.31274632807361746	0.40188912254928305	0.269392248389976	0.34264614910770785	0.7488634531495285	0.5645859541240381	0.32131800988963727	1.020023273698094	0.833421906384153	0.305293896534676	0.9320193358480358	0.9367237578625962	0.3541452777738364	0.9266676003946994	0.9264899493796201	0.3046878678375249	1.0992832123199907	0.8467496186648604	0.13770055460554353	0.4596560141010133	0.24180745418137292	0.1271256550779156	0.7738806357222121	0.5447709263007483	0.14283474546655422	1.0591411669295951	0.8338990766276311	0.10974489835006036	0.9138413624053056	0.9291792143338822	0.07448734179504873	0.9832427688511162	0.8950268705065879	0.1590185915692631	1.093399342619234	0.8515208939486743	0.22760939370191374	0.10659287636115748	-0.18876244450959392	0.21064491534902163	-0.06759003998571651	-0.356960165932822	0.19294535182426734	-0.03664611210508405	-0.21982600388168247	0.3705707505626632	0.13841996293311545	-0.11502180774222827	0.36355002617249926	0.22576775381905856	0.13540170090908368	0.3335023781586905	0.008439244771610717	0.11939218790920214	0.3409378338442344	-0.09369529307036975	0.0598568124957908	0.341300806937648	-0.11566512758206152	0.08643543128511108	0.3228759331363264	-0.0886425167192176	0.13047415680440755	0.07099940563725342	0.19417457561165452	-0.15641998287122305	0.06900588393816603	0.26997288954703935	0.08754724315714109	0.024866130539044587	0.06649308882699616	0.042609557889972186	-0.015263503860537255	-0.0024843491104035195	-0.024612809244596096	-0.03506944400148127	-0.0631602672395834	0.012523527030047124	-0.017314066485973903	-0.059840870285490205	0.0764651627844771
